<svg xmlns="http://www.w3.org/2000/svg" width="96.063" height="22.976" viewBox="0 0 96.063 22.976">
  <g id="Groupe_1737" data-name="Groupe 1737" transform="translate(-1098 -1383)">
    <path id="Tracé_4599" data-name="Tracé 4599" d="M251.627,219.956l2.4,7.45,7.825-.015a.922.922,0,0,1,.926.921.913.913,0,0,1-.41.765l-6.314,4.568,2.438,7.435a.927.927,0,0,1-1.468,1l-6.279-4.583-6.323,4.612a.921.921,0,0,1-1.287-.2.934.934,0,0,1-.132-.834h0l2.433-7.435-6.338-4.588a.92.92,0,0,1,.541-1.667l7.825.015,2.4-7.45a.927.927,0,0,1,1.16-.595.949.949,0,0,1,.595.595Z" transform="translate(859.282 1163.683)" fill="#333"/>
    <path id="Tracé_4600" data-name="Tracé 4600" d="M251.627,219.956l2.4,7.45,7.825-.015a.922.922,0,0,1,.926.921.913.913,0,0,1-.41.765l-6.314,4.568,2.438,7.435a.927.927,0,0,1-1.468,1l-6.279-4.583-6.323,4.612a.921.921,0,0,1-1.287-.2.934.934,0,0,1-.132-.834h0l2.433-7.435-6.338-4.588a.92.92,0,0,1,.541-1.667l7.825.015,2.4-7.45a.927.927,0,0,1,1.16-.595.949.949,0,0,1,.595.595Z" transform="translate(883.282 1163.683)" fill="#333"/>
    <path id="Tracé_4601" data-name="Tracé 4601" d="M251.627,219.956l2.4,7.45,7.825-.015a.922.922,0,0,1,.926.921.913.913,0,0,1-.41.765l-6.314,4.568,2.438,7.435a.927.927,0,0,1-1.468,1l-6.279-4.583-6.323,4.612a.921.921,0,0,1-1.287-.2.934.934,0,0,1-.132-.834h0l2.433-7.435-6.338-4.588a.92.92,0,0,1,.541-1.667l7.825.015,2.4-7.45a.927.927,0,0,1,1.16-.595.949.949,0,0,1,.595.595Z" transform="translate(907.282 1163.683)" fill="#333"/>
    <path id="Tracé_4602" data-name="Tracé 4602" d="M251.627,219.956l2.4,7.45,7.825-.015a.922.922,0,0,1,.926.921.913.913,0,0,1-.41.765l-6.314,4.568,2.438,7.435a.927.927,0,0,1-1.468,1l-6.279-4.583-6.323,4.612a.921.921,0,0,1-1.287-.2.934.934,0,0,1-.132-.834h0l2.433-7.435-6.338-4.588a.92.92,0,0,1,.541-1.667l7.825.015,2.4-7.45a.927.927,0,0,1,1.16-.595.949.949,0,0,1,.595.595Z" transform="translate(931.282 1163.683)" fill="#333"/>
  </g>
</svg>
