<?xml version="1.0" encoding="utf-8"?>
<!-- Generator: Adobe Illustrator 24.1.2, SVG Export Plug-In . SVG Version: 6.00 Build 0)  -->
<svg version="1.1" id="Calque_1" xmlns="http://www.w3.org/2000/svg" xmlns:xlink="http://www.w3.org/1999/xlink" x="0px" y="0px"
	 width="267px" height="267px" viewBox="0 0 267 267" enable-background="new 0 0 267 267" xml:space="preserve">
<path fill="#FFFFFF" d="M207.9,156.2c0-5.7,4.6-10.3,10.3-10.3s10.2,4.6,10.2,10.3v100.5c0,5.7-4.6,10.3-10.2,10.3h-0.3h-169
	c-5.7,0-10.3-4.6-10.3-10.3v-0.2V156.2c0-5.7,4.6-10.3,10.3-10.3s10.2,4.6,10.2,10.3v90.2h33V145.1c0-3.4,2.7-6.2,6.2-6.2h0.1h70.2
	c3.4,0,6.2,2.8,6.2,6.2v0.2v101.2h33v-90.3H207.9z M104.5,246.5L104.5,246.5h58.1v-95.2h-58.1L104.5,246.5L104.5,246.5z M17.5,159
	L17.5,159l116-116l116,116c4,4,10.5,4,14.5,0s4-10.5,0-14.5l-123-123l-0.2-0.2c-4-4-10.5-4-14.5,0L3,144.5c-4,4-4,10.5,0,14.5
	S13.5,163,17.5,159L17.5,159z"/>
</svg>
