<?xml version="1.0" encoding="utf-8"?>
<!-- Generator: Adobe Illustrator 24.1.2, SVG Export Plug-In . SVG Version: 6.00 Build 0)  -->
<svg version="1.1" id="Calque_1" xmlns="http://www.w3.org/2000/svg" xmlns:xlink="http://www.w3.org/1999/xlink" x="0px" y="0px"
	 width="250px" height="180px" viewBox="0 0 267 267" enable-background="new 0 0 267 267" xml:space="preserve">
<path fill="#000" d="M21.6,239.1c-3.7,0-6.6-2.9-6.6-6.5s2.9-6.5,6.6-6.5H33v-117H10.3c-6,0-10.8-4.9-10.8-10.8
	c0-4.6,2.8-8.5,6.8-10.1l122-61c3.2-1.6,6.8-1.5,9.7,0l122.9,61.4c5.3,2.7,7.4,9.1,4.8,14.4c-1.9,3.8-5.7,6-9.7,6l0,0h-22.7v117.1
	h11.4c3.6,0,6.4,2.9,6.4,6.5s-2.9,6.5-6.4,6.5H21.6L21.6,239.1z M54.6,109.1L54.6,109.1v117.1h38V109.1H54.6L54.6,109.1z
	 M114.1,109.1L114.1,109.1v117.1h38.1V109.1H114.1L114.1,109.1z M173.8,109.1L173.8,109.1v117.1h38.1V109.1H173.8L173.8,109.1z
	 M210.5,87.5L210.5,87.5l-77.3-38.7L55.8,87.5H210.5L210.5,87.5z M10.3,267L10.3,267c-6,0-10.8-4.8-10.8-10.7
	c0-6,4.8-10.8,10.8-10.8h245.8c6,0,10.9,4.9,10.9,10.8c0,5.9-4.9,10.7-10.9,10.7H10.3L10.3,267z"/>
</svg>
