<?xml version="1.0" encoding="utf-8"?>
<!-- Generator: Adobe Illustrator 22.0.1, SVG Export Plug-In . SVG Version: 6.00 Build 0)  -->
<svg version="1.1" id="Calque_1" xmlns="http://www.w3.org/2000/svg" xmlns:xlink="http://www.w3.org/1999/xlink" x="0px" y="0px"
	 viewBox="0 0 45.9 31.3" style="enable-background:new 0 0 45.9 31.3;" xml:space="preserve">
<style type="text/css">
	.st0{fill:#264DE4;}
	.st1{fill:#2043DC;}
	.st2{opacity:0.33;fill:#2043DC;enable-background:new    ;}
	.st3{fill:none;}
</style>
<g id="Calque_2_1_">
	<rect y="-20" class="st0" width="59.5" height="52.2"/>
</g>
<g id="Layer_1">
	<g>
		<path class="st1" d="M45.9-0.1c0-10.9-8.9-19.8-19.8-19.8h-6.2h-19c-0.6,0-1,0.4-1,1v1v49c0,0.6,0.4,1,1,1h18c0.6,0,1-0.4,1-1v-10
			c0-0.6,0.4-1,1-1h4.8C36.9,20.1,45.9,11,45.9-0.1L45.9-0.1z"/>
		<path class="st1" d="M38.9,26.1h4c0.6,0,1,0.4,1,1v4c0,0.6-0.4,1-1,1h-4c-0.6,0-1-0.4-1-1v-4C37.9,26.5,38.4,26.1,38.9,26.1z"/>
		<polygon class="st2" points="19.6,31.8 39.7,14.4 15.9,17.2 17.9,30.1 		"/>
		<line class="st3" x1="4.9" y1="-19.9" x2="4.9" y2="-16.8"/>
		<line class="st3" x1="1.7" y1="29.1" x2="1.7" y2="32.1"/>
	</g>
</g>
</svg>
