<?xml version="1.0" encoding="utf-8"?>
<!-- Generator: Adobe Illustrator 16.0.0, SVG Export Plug-In . SVG Version: 6.00 Build 0)  -->
<!DOCTYPE svg PUBLIC "-//W3C//DTD SVG 1.1//EN" "http://www.w3.org/Graphics/SVG/1.1/DTD/svg11.dtd">
<svg version="1.1" id="logo" xmlns="http://www.w3.org/2000/svg" xmlns:xlink="http://www.w3.org/1999/xlink" x="0px" y="0px"
	 width="671.5px" height="758.826px" viewBox="0 0 671.5 758.826" enable-background="new 0 0 671.5 758.826" xml:space="preserve">
<g>
	<g>
		<path fill="#1E40DB" d="M291.979,597.7v145.232c0,4.356-1.461,7.263-2.919,8.713l271.388-232.371
			c-49.605,39.213-113.807,63.899-183.843,63.899h-70.038C297.814,583.176,291.979,588.986,291.979,597.7z"/>
		<path fill="#1E40DB" d="M572.121,509.108l8.755-7.263l0,0C577.96,504.75,575.04,506.203,572.121,509.108z"/>
	</g>
	<path fill="#1938D0" d="M671.34,289.806C671.34,131.5,541.481,2.243,382.441,2.243H14.751c-8.755,0-14.59,5.81-14.59,14.523
		v726.167c0,8.713,5.835,14.524,14.59,14.524h262.637c8.753,0,14.59-5.812,14.59-14.524V597.7c0-8.714,5.836-14.525,14.589-14.525
		h70.038C540.022,583.176,671.34,452.466,671.34,289.806L671.34,289.806z"/>
</g>
</svg>
