<?xml version="1.0" encoding="utf-8"?>
<!-- Generator: Adobe Illustrator 16.0.0, SVG Export Plug-In . SVG Version: 6.00 Build 0)  -->
<!DOCTYPE svg PUBLIC "-//W3C//DTD SVG 1.1//EN" "http://www.w3.org/Graphics/SVG/1.1/DTD/svg11.dtd">
<svg version="1.1" id="logo" xmlns="http://www.w3.org/2000/svg" xmlns:xlink="http://www.w3.org/1999/xlink" x="0px" y="0px"
	 width="671.5px" height="758.826px" viewBox="0 -16.913 671.5 758.826" enable-background="new 0 -16.913 671.5 758.826"
	 xml:space="preserve">
<g>
	<path fill="#93D940" d="M291.983,582.434v146.271c0,4.387-1.451,7.313-2.901,8.774l269.801-234.032
		c-49.317,39.493-113.142,64.358-182.769,64.358h-69.626C297.787,567.807,291.983,573.658,291.983,582.434z"/>
	<path fill="#93D940" d="M570.488,493.209l8.701-7.314l0,0C576.292,488.819,573.39,490.283,570.488,493.209z"/>
</g>
<path fill="#7DC429" d="M669.125,272.339c0-159.436-129.099-289.617-287.207-289.617H16.38c-8.703,0-14.505,5.852-14.505,14.627
	v731.354c0,8.774,5.802,14.627,14.505,14.627h261.099c8.703,0,14.504-5.852,14.504-14.627V582.434
	c0-8.775,5.803-14.629,14.506-14.629h69.626C538.576,567.807,669.125,436.161,669.125,272.339L669.125,272.339z"/>
</svg>
