<?xml version="1.0" encoding="utf-8"?>
<!-- Generator: Adobe Illustrator 16.0.0, SVG Export Plug-In . SVG Version: 6.00 Build 0)  -->
<!DOCTYPE svg PUBLIC "-//W3C//DTD SVG 1.1//EN" "http://www.w3.org/Graphics/SVG/1.1/DTD/svg11.dtd">
<svg version="1.1" id="logo" xmlns="http://www.w3.org/2000/svg" xmlns:xlink="http://www.w3.org/1999/xlink" x="0px" y="0px"
	 width="671.5px" height="758.826px" viewBox="0 0 671.5 758.826" enable-background="new 0 0 671.5 758.826" xml:space="preserve">
<g>
	<path fill="#BCB900" d="M292.399,599.421v146.198c0,4.387-1.462,7.312-2.924,8.772l271.931-233.92
		C511.7,559.947,447.372,584.8,377.195,584.8H307.02C298.248,584.801,292.399,590.649,292.399,599.421z"/>
	<path fill="#BCB900" d="M573.104,510.239l8.771-7.311l0,0C578.951,505.853,576.027,507.315,573.104,510.239z"/>
</g>
<path fill="#EBE414" d="M672.52,289.476C672.52,130.118,542.402,0,383.043,0H14.62C5.848,0.001,0,5.849,0,14.62v730.999
	c0,8.772,5.848,14.621,14.62,14.621h263.16c8.772,0,14.62-5.849,14.62-14.621V599.421c0-8.771,5.849-14.619,14.62-14.619h70.177
	C540.939,584.801,672.52,453.221,672.52,289.476L672.52,289.476z"/>
</svg>
