<?xml version="1.0" encoding="utf-8"?>
<!-- Generator: Adobe Illustrator 16.0.0, SVG Export Plug-In . SVG Version: 6.00 Build 0)  -->
<!DOCTYPE svg PUBLIC "-//W3C//DTD SVG 1.1//EN" "http://www.w3.org/Graphics/SVG/1.1/DTD/svg11.dtd">
<svg version="1.1" id="Layer_1" xmlns="http://www.w3.org/2000/svg" xmlns:xlink="http://www.w3.org/1999/xlink" x="0px" y="0px"
	 width="200px" height="200px" viewBox="0 0 200 200" enable-background="new 0 0 200 200" xml:space="preserve">
<g>
	<path fill="#2E54A4" d="M138.731,48.345c0-18.484-15.093-33.577-33.575-33.577H94.642h-32.22c-1.017,0-1.695,0.679-1.695,1.696
		v1.696v83.091c0,1.019,0.678,1.696,1.695,1.696h30.523c1.018,0,1.696-0.678,1.696-1.696V84.295c0-1.018,0.678-1.696,1.696-1.696
		h8.139C123.469,82.599,138.731,67.337,138.731,48.345L138.731,48.345z"/>
	<path fill="#2E54A4" d="M126.86,92.773h6.783c1.018,0,1.695,0.678,1.695,1.696v6.783c0,1.019-0.678,1.696-1.695,1.696h-6.783
		c-1.018,0-1.695-0.678-1.695-1.696v-6.783C125.165,93.451,125.843,92.773,126.86,92.773z"/>
	<polygon opacity="0.33" fill="#2E54A4" enable-background="new    " points="94.133,102.439 128.218,73.103 87.859,77.851 
		91.25,99.556 	"/>
	<line fill="none" x1="69.207" y1="14.769" x2="69.207" y2="19.856"/>
	<line fill="none" x1="63.553" y1="97.861" x2="63.553" y2="102.948"/>
</g>
<g>
	<path fill="#2E54A4" d="M23.025,147.15c1.865,0.848,3.334,2.036,4.296,3.674c0.96,1.64,1.526,3.391,1.526,5.597
		c0,2.147-0.509,3.956-1.526,5.483c-1.017,1.582-2.431,2.769-4.296,3.673c-1.865,0.848-4.126,1.243-6.614,1.243h-5.709v7.915H3.919
		v-28.829h12.492C18.899,145.906,21.16,146.303,23.025,147.15z M20.876,159.812c1.075-0.848,1.64-2.147,1.64-3.731
		c0-1.638-0.565-2.881-1.64-3.786c-1.074-0.904-2.6-1.356-4.635-1.356h-5.54v10.174h5.54
		C18.277,161.111,19.803,160.716,20.876,159.812z"/>
	<path fill="#2E54A4" d="M45.014,153.199c1.355-0.51,2.882-0.792,4.691-0.792v5.483c-0.792-0.057-1.3-0.057-1.583-0.057
		c-1.979,0-3.504,0.564-4.635,1.638c-1.13,1.132-1.696,2.77-1.696,4.976v10.288h-6.216v-22.046h6.216v2.938
		C42.639,154.555,43.713,153.763,45.014,153.199z"/>
	<path fill="#2E54A4" d="M59.992,173.548c-1.865-1.019-3.334-2.318-4.352-4.07c-1.074-1.751-1.583-3.73-1.583-5.935
		c0-2.206,0.509-4.184,1.583-5.936c1.073-1.753,2.543-3.053,4.352-4.07c1.866-1.018,3.958-1.47,6.332-1.47
		c2.317,0,4.465,0.452,6.274,1.47c1.865,1.018,3.278,2.317,4.352,4.07c1.074,1.752,1.583,3.729,1.583,5.936
		c0,2.204-0.509,4.184-1.583,5.935c-1.074,1.752-2.487,3.052-4.352,4.07c-1.866,1.018-3.958,1.47-6.274,1.47
		C63.893,175.018,61.857,174.565,59.992,173.548z M70.393,168.009c1.074-1.13,1.583-2.602,1.583-4.466
		c0-1.865-0.509-3.393-1.583-4.467c-1.073-1.13-2.374-1.638-4.069-1.638c-1.639,0-2.996,0.508-4.07,1.638
		c-1.073,1.131-1.582,2.602-1.582,4.467c0,1.864,0.509,3.393,1.582,4.466c1.075,1.13,2.487,1.638,4.07,1.638
		C67.905,169.761,69.319,169.195,70.393,168.009z"/>
	<path fill="#2E54A4" d="M87.293,174.396c-1.751-0.451-3.222-1.019-4.182-1.752l2.148-4.578c1.017,0.678,2.204,1.13,3.617,1.525
		c1.414,0.396,2.827,0.622,4.127,0.622c2.712,0,4.069-0.679,4.069-1.978c0-0.679-0.396-1.074-1.131-1.356
		c-0.734-0.284-1.864-0.511-3.391-0.736c-1.809-0.282-3.334-0.622-4.522-0.961c-1.187-0.339-2.204-1.018-3.052-1.922
		c-0.849-0.96-1.357-2.205-1.357-3.844c0-1.413,0.395-2.658,1.187-3.729c0.791-1.076,1.978-1.924,3.504-2.544
		c1.527-0.623,3.392-0.961,5.54-0.961c1.583,0,3.108,0.226,4.691,0.508c1.526,0.34,2.883,0.791,3.845,1.413l-2.148,4.579
		c-1.923-1.131-4.071-1.639-6.387-1.639c-1.414,0-2.375,0.226-3.109,0.621c-0.678,0.396-1.018,0.848-1.018,1.47
		c0,0.678,0.396,1.186,1.131,1.47c0.734,0.282,1.921,0.508,3.504,0.79c1.808,0.34,3.335,0.622,4.466,1.019
		c1.13,0.34,2.147,1.018,2.995,1.865c0.849,0.961,1.244,2.203,1.244,3.788c0,1.412-0.396,2.599-1.244,3.673
		c-0.791,1.073-1.978,1.921-3.617,2.543c-1.639,0.623-3.448,0.849-5.653,0.849C90.912,175.018,89.103,174.848,87.293,174.396z"/>
	<path fill="#2E54A4" d="M128.444,153.595c1.64,0.96,2.996,2.26,4.014,4.013c0.96,1.752,1.469,3.729,1.469,5.992
		c0,2.261-0.451,4.239-1.469,5.991c-0.963,1.751-2.263,3.053-4.014,4.013c-1.754,0.962-3.618,1.414-5.653,1.414
		c-2.882,0-6.331-2.658-6.331-2.658v10.289h-6.782v-30.524h6.218v2.826c1.526-1.921,3.845-2.883,6.896-2.883
		C124.883,152.124,126.749,152.633,128.444,153.595z M125.73,168.009c1.074-1.13,1.584-2.602,1.584-4.466
		c0-1.865-0.51-3.393-1.584-4.467c-1.073-1.13-2.373-1.638-4.069-1.638c-1.64,0-2.997,0.508-4.069,1.638
		c-1.075,1.131-1.584,2.602-1.584,4.467c0,1.864,0.509,3.393,1.584,4.466c1.072,1.13,2.374,1.638,4.069,1.638
		C123.357,169.761,124.713,169.195,125.73,168.009z"/>
	<path fill="#2E54A4" d="M162.303,165.125h-16.788c0.339,1.413,1.017,2.488,2.147,3.279c1.13,0.791,2.545,1.187,4.184,1.187
		c1.13,0,2.203-0.227,3.052-0.508c0.849-0.284,1.752-0.848,2.544-1.585l3.391,3.731c-2.091,2.374-5.143,3.618-9.214,3.618
		c-2.544,0-4.747-0.452-6.669-1.471c-1.921-1.018-3.392-2.316-4.466-4.068c-1.073-1.752-1.583-3.731-1.583-5.936
		c0-2.205,0.51-4.127,1.526-5.879c1.074-1.751,2.486-3.109,4.24-4.069c1.808-1.018,3.785-1.47,6.048-1.47
		c2.205,0,4.127,0.452,5.935,1.412c1.753,0.961,3.109,2.261,4.128,4.015c1.015,1.752,1.525,3.786,1.525,6.048
		C162.416,163.543,162.416,164.052,162.303,165.125z M147.21,158.342c-1.017,0.792-1.583,1.922-1.809,3.392h10.91
		c-0.226-1.414-0.792-2.543-1.811-3.392c-1.018-0.848-2.204-1.243-3.673-1.243C149.415,157.155,148.227,157.551,147.21,158.342z"/>
	<path fill="#2E54A4" d="M178.411,153.199c1.358-0.51,2.884-0.792,4.691-0.792v5.709c-0.733-0.056-1.186-0.056-1.468-0.056
		c-1.865,0-3.224,0.508-4.297,1.525c-1.074,1.073-1.582,2.601-1.582,4.635v10.515h-6.219v-22.046h5.653v2.938
		C176.038,154.555,177.111,153.763,178.411,153.199z"/>
	<path fill="#2E54A4" d="M188.699,173.888c-0.791-0.793-1.131-1.754-1.131-2.884c0-1.188,0.396-2.147,1.131-2.884
		c0.734-0.733,1.752-1.074,2.882-1.074c1.132,0,2.093,0.341,2.884,1.074c0.792,0.736,1.13,1.641,1.13,2.884
		c0,1.13-0.395,2.147-1.13,2.884c-0.791,0.79-1.752,1.13-2.884,1.13C190.395,175.018,189.491,174.622,188.699,173.888z"/>
</g>
</svg>
