<?xml version="1.0" encoding="utf-8"?>
<!-- Generator: Adobe Illustrator 22.0.1, SVG Export Plug-In . SVG Version: 6.00 Build 0)  -->
<svg version="1.1" id="logo" xmlns="http://www.w3.org/2000/svg" xmlns:xlink="http://www.w3.org/1999/xlink" x="0px" y="0px"
	 viewBox="0 0 46 52" style="enable-background:new 0 0 46 52;" xml:space="preserve">
<style type="text/css">
	.st0{fill:#B0BEEE;}
	.st1{fill:#2144e0;}
	.st2{fill:#2144e0;}
</style>
<g>
	<path class="st0" d="M20,41v10c0,0.3-0.1,0.5-0.2,0.6l18.6-16C35,38.3,30.6,40,25.8,40H21C20.4,40,20,40.4,20,41z"/>
	<path class="st1" d="M39.2,34.9l0.6-0.5l0,0C39.6,34.6,39.4,34.7,39.2,34.9z"/>
</g>
<path class="st2" d="M46,19.8C46,8.9,37.1,0,26.2,0H1C0.4,0,0,0.4,0,1v50c0,0.6,0.4,1,1,1h18c0.6,0,1-0.4,1-1V41c0-0.6,0.4-1,1-1
	h4.8C37,40,46,31,46,19.8L46,19.8z"/>
<path class="st2" d="M39,46h4c0.6,0,1,0.4,1,1v4c0,0.6-0.4,1-1,1h-4c-0.6,0-1-0.4-1-1v-4C38,46.4,38.4,46,39,46z"/>
</svg>
