<?xml version="1.0" encoding="utf-8"?>
<!-- Generator: Adobe Illustrator 16.0.0, SVG Export Plug-In . SVG Version: 6.00 Build 0)  -->
<!DOCTYPE svg PUBLIC "-//W3C//DTD SVG 1.1//EN" "http://www.w3.org/Graphics/SVG/1.1/DTD/svg11.dtd">
<svg version="1.1" id="Layer_1" xmlns="http://www.w3.org/2000/svg" xmlns:xlink="http://www.w3.org/1999/xlink" x="0px" y="0px"
	 width="612px" height="792px" viewBox="0 0 612 792" enable-background="new 0 0 612 792" xml:space="preserve">
<g>
	<path fill="#42A0C6" d="M612,313.513c0-145.018-118.409-263.426-263.426-263.426h-82.487H13.304C5.322,50.087,0,55.409,0,63.391
		v13.305v651.913c0,7.982,5.322,13.305,13.304,13.305h239.479c7.982,0,13.304-5.322,13.304-13.305V595.565
		c0-7.982,5.322-13.305,13.304-13.305h63.861C492.261,582.261,612,462.521,612,313.513L612,313.513z"/>
	<path fill="#42A0C6" d="M518.869,662.087h53.218c7.982,0,13.305,5.321,13.305,13.305v53.217c0,7.982-5.322,13.305-13.305,13.305
		h-53.218c-7.982,0-13.304-5.322-13.304-13.305v-53.217C505.565,667.408,510.887,662.087,518.869,662.087z"/>
	<polygon opacity="0.33" fill="#37A3C4" enable-background="new    " points="262.096,737.922 529.513,507.757 212.87,545.009 
		239.479,715.305 	"/>
	<line fill="none" x1="66.522" y1="50.087" x2="66.522" y2="91.331"/>
	<line fill="none" x1="23.948" y1="702" x2="23.948" y2="741.913"/>
</g>
</svg>
