<?xml version="1.0" encoding="utf-8"?>
<!-- Generator: Adobe Illustrator 22.0.1, SVG Export Plug-In . SVG Version: 6.00 Build 0)  -->
<svg version="1.1" id="Calque_1" xmlns="http://www.w3.org/2000/svg" xmlns:xlink="http://www.w3.org/1999/xlink" x="0px" y="0px"
	 viewBox="0 0 287.5 55.4" style="enable-background:new 0 0 287.5 55.4;" xml:space="preserve">
<style type="text/css">
	.st0{fill:#FFFFFF;}
</style>
<g>
	<path class="st0" d="M28.8,1.9c2.8,1.3,5,3.1,6.5,5.5c1.5,2.4,2.3,5.1,2.3,8.4c0,3.2-0.8,6-2.3,8.3c-1.5,2.4-3.7,4.2-6.5,5.5
		c-2.8,1.3-6.2,1.9-10,1.9H10v12H0V0h18.8C22.6,0,26,0.6,28.8,1.9z M25.1,21.3c1.6-1.3,2.4-3.2,2.4-5.5c0-2.4-0.8-4.3-2.4-5.6
		c-1.6-1.3-3.9-2-6.9-2H10v15.1h8.2C21.2,23.2,23.5,22.6,25.1,21.3z"/>
	<path class="st0" d="M61.7,10.8c2-0.8,4.2-1.2,6.8-1.2v8.9c-1.1-0.1-1.8-0.1-2.2-0.1c-2.8,0-4.9,0.8-6.5,2.3
		c-1.6,1.6-2.4,3.9-2.4,7v15.7h-9.7V10H57v4.4C58.2,12.8,59.8,11.6,61.7,10.8z"/>
	<path class="st0" d="M84.1,41.7c-2.8-1.5-5-3.5-6.5-6.1C76,33,75.2,30,75.2,26.7s0.8-6.3,2.4-8.9c1.6-2.6,3.8-4.6,6.5-6.1
		c2.8-1.5,5.9-2.2,9.5-2.2c3.5,0,6.7,0.7,9.4,2.2c2.8,1.5,4.9,3.5,6.5,6.1s2.4,5.6,2.4,8.9s-0.8,6.3-2.4,8.9
		c-1.6,2.6-3.7,4.6-6.5,6.1c-2.8,1.5-5.9,2.2-9.4,2.2C90,43.9,86.9,43.2,84.1,41.7z M99.7,33.4c1.6-1.7,2.4-3.9,2.4-6.7
		s-0.8-5.1-2.4-6.7c-1.6-1.7-3.6-2.5-6.1-2.5c-2.5,0-4.5,0.8-6.1,2.5c-1.6,1.7-2.4,3.9-2.4,6.7s0.8,5.1,2.4,6.7
		c1.6,1.7,3.7,2.5,6.1,2.5C96,36,98.1,35.1,99.7,33.4z"/>
	<path class="st0" d="M125.1,42.9c-2.6-0.7-4.8-1.5-6.3-2.6l3.2-6.9c1.5,1,3.3,1.7,5.4,2.3c2.1,0.6,4.2,0.9,6.2,0.9
		c4.1,0,6.1-1,6.1-3c0-1-0.6-1.6-1.7-2c-1.1-0.4-2.8-0.8-5.1-1.1c-2.7-0.4-5-0.9-6.8-1.4c-1.8-0.5-3.3-1.5-4.6-2.9
		c-1.3-1.4-2-3.3-2-5.8c0-2.1,0.6-4,1.8-5.6c1.2-1.6,3-2.9,5.3-3.8c2.3-0.9,5.1-1.4,8.3-1.4c2.4,0,4.7,0.3,7,0.8
		c2.3,0.5,4.3,1.2,5.8,2.1l-3.2,6.9c-2.9-1.7-6.1-2.5-9.6-2.5c-2.1,0-3.6,0.3-4.7,0.9c-1,0.6-1.5,1.3-1.5,2.2c0,1,0.6,1.8,1.7,2.2
		c1.1,0.4,2.9,0.8,5.3,1.2c2.7,0.5,5,0.9,6.7,1.5c1.7,0.5,3.2,1.5,4.5,2.8c1.3,1.4,1.9,3.3,1.9,5.7c0,2.1-0.6,3.9-1.9,5.5
		c-1.2,1.6-3,2.9-5.4,3.8c-2.4,0.9-5.2,1.3-8.5,1.3C130.5,43.9,127.8,43.6,125.1,42.9z"/>
	<path class="st0" d="M186.8,11.7c2.5,1.4,4.5,3.4,6,6c1.4,2.6,2.2,5.6,2.2,9c0,3.4-0.7,6.4-2.2,9c-1.4,2.6-3.4,4.6-6,6
		s-5.4,2.1-8.5,2.1c-4.3,0-7.6-1.3-10-4v15.6h-9.7V10h9.2v3.8c2.4-2.9,5.9-4.3,10.5-4.3C181.5,9.5,184.3,10.3,186.8,11.7z
		 M182.8,33.4c1.6-1.7,2.4-3.9,2.4-6.7s-0.8-5.1-2.4-6.7c-1.6-1.7-3.6-2.5-6.1-2.5c-2.5,0-4.5,0.8-6.1,2.5c-1.6,1.7-2.4,3.9-2.4,6.7
		s0.8,5.1,2.4,6.7c1.6,1.7,3.6,2.5,6.1,2.5C179.2,36,181.2,35.1,182.8,33.4z"/>
	<path class="st0" d="M237.6,29.4h-25.2c0.5,2.1,1.5,3.7,3.2,4.9c1.7,1.2,3.8,1.8,6.3,1.8c1.7,0,3.3-0.3,4.6-0.8
		c1.3-0.5,2.6-1.3,3.8-2.4l5.1,5.6c-3.1,3.6-7.7,5.4-13.8,5.4c-3.8,0-7.1-0.7-10-2.2c-2.9-1.5-5.1-3.5-6.7-6.1
		c-1.6-2.6-2.4-5.6-2.4-8.9c0-3.3,0.8-6.2,2.3-8.8c1.6-2.6,3.7-4.7,6.4-6.1c2.7-1.5,5.7-2.2,9.1-2.2c3.3,0,6.2,0.7,8.9,2.1
		c2.6,1.4,4.7,3.4,6.2,6c1.5,2.6,2.3,5.7,2.3,9.1C237.8,27,237.8,27.8,237.6,29.4z M215,18.7c-1.5,1.2-2.4,2.9-2.7,5.1h16.4
		c-0.3-2.1-1.2-3.8-2.7-5.1c-1.5-1.3-3.3-1.9-5.5-1.9C218.3,16.9,216.5,17.5,215,18.7z"/>
	<path class="st0" d="M261.9,10.8c2-0.8,4.2-1.2,6.8-1.2v8.9c-1.1-0.1-1.8-0.1-2.2-0.1c-2.8,0-4.9,0.8-6.5,2.3
		c-1.6,1.6-2.4,3.9-2.4,7v15.7H248V10h9.2v4.4C258.4,12.8,260,11.6,261.9,10.8z"/>
	<path class="st0" d="M277.2,42.2c-1.2-1.2-1.7-2.6-1.7-4.3c0-1.8,0.6-3.2,1.7-4.3s2.6-1.6,4.3-1.6c1.7,0,3.1,0.5,4.3,1.6
		c1.2,1.1,1.7,2.5,1.7,4.3c0,1.7-0.6,3.2-1.7,4.3c-1.2,1.2-2.6,1.7-4.3,1.7C279.8,43.9,278.4,43.3,277.2,42.2z"/>
</g>
</svg>
