<?xml version="1.0" encoding="utf-8"?>
<!-- Generator: Adobe Illustrator 22.0.1, SVG Export Plug-In . SVG Version: 6.00 Build 0)  -->
<svg version="1.1" id="Layer_1" xmlns="http://www.w3.org/2000/svg" xmlns:xlink="http://www.w3.org/1999/xlink" x="0px" y="0px"
	 viewBox="0 0 46 52" style="enable-background:new 0 0 46 52;" xml:space="preserve">
<style type="text/css">
	.st0{fill:#fff;}
	.st1{opacity:0.33;fill:#fff;}
</style>
<g>
	<path class="st0" d="M46,19.8C46,8.9,37.1,0,26.2,0L20,0H1C0.4,0,0,0.4,0,1l0,1l0,49c0,0.6,0.4,1,1,1h18c0.6,0,1-0.4,1-1V41
		c0-0.6,0.4-1,1-1h4.8C37,40,46,31,46,19.8L46,19.8z"/>
	<path class="st0" d="M39,46h4c0.6,0,1,0.4,1,1v4c0,0.6-0.4,1-1,1h-4c-0.6,0-1-0.4-1-1v-4C38,46.4,38.4,46,39,46z"/>
	<polygon class="st1" points="19.7,51.7 39.8,34.4 16,37.2 18,50 	"/>
	<line class="st0" x1="5" y1="0" x2="5" y2="3.1"/>
	<line class="st0" x1="1.8" y1="49" x2="1.8" y2="52"/>
</g>
</svg>
