<?xml version="1.0" encoding="utf-8"?>
<!-- Generator: Adobe Illustrator 21.0.0, SVG Export Plug-In . SVG Version: 6.00 Build 0)  -->
<svg version="1.1" id="Layer_1" xmlns="http://www.w3.org/2000/svg" xmlns:xlink="http://www.w3.org/1999/xlink" x="0px" y="0px"
	 viewBox="0 0 339 297" style="enable-background:new 0 0 339 297;" xml:space="preserve">
<style type="text/css">
	.st0{fill:#3557D3;}
	.st1{opacity:0.33;fill:#3557D3;enable-background:new    ;}
	.st2{fill:none;}
</style>
<g>
	<path class="st0" d="M238.5,59.4c0-32.7-26.7-59.4-59.4-59.4h-18.6h-57c-1.8,0-3,1.2-3,3v3v147c0,1.8,1.2,3,3,3h54c1.8,0,3-1.2,3-3
		v-30c0-1.8,1.2-3,3-3h14.4C211.5,120,238.5,93,238.5,59.4L238.5,59.4z"/>
	<path class="st0" d="M217.5,138h12c1.8,0,3,1.2,3,3v12c0,1.8-1.2,3-3,3h-12c-1.8,0-3-1.2-3-3v-12C214.5,139.2,215.7,138,217.5,138z
		"/>
	<polygon class="st1" points="159.6,155.1 219.9,103.2 148.5,111.6 154.5,150 	"/>
	<line class="st2" x1="115.5" y1="0" x2="115.5" y2="9"/>
	<line class="st2" x1="105.5" y1="147" x2="105.5" y2="156"/>
</g>
<g>
	<path class="st0" d="M33.8,234.2c3.3,1.5,5.9,3.6,7.6,6.5s2.7,6,2.7,9.9c0,3.8-0.9,7-2.7,9.7c-1.8,2.8-4.3,4.9-7.6,6.5
		c-3.3,1.5-7.3,2.2-11.7,2.2H12v14H0v-51h22.1C26.5,232,30.5,232.7,33.8,234.2z M30,256.6c1.9-1.5,2.9-3.8,2.9-6.6
		c0-2.9-1-5.1-2.9-6.7s-4.6-2.4-8.2-2.4H12v18h9.8C25.4,258.9,28.1,258.2,30,256.6z"/>
	<path class="st0" d="M72.7,244.9c2.4-0.9,5.1-1.4,8.3-1.4v9.7c-1.4-0.1-2.3-0.1-2.8-0.1c-3.5,0-6.2,1-8.2,2.9c-2,2-3,4.9-3,8.8V283
		H56v-39h11v5.2C68.5,247.3,70.4,245.9,72.7,244.9z"/>
	<path class="st0" d="M99.2,280.9c-3.3-1.8-5.9-4.1-7.7-7.2c-1.9-3.1-2.8-6.6-2.8-10.5c0-3.9,0.9-7.4,2.8-10.5s4.5-5.4,7.7-7.2
		c3.3-1.8,7-2.6,11.2-2.6c4.1,0,7.9,0.8,11.1,2.6c3.3,1.8,5.8,4.1,7.7,7.2c1.9,3.1,2.8,6.6,2.8,10.5c0,3.9-0.9,7.4-2.8,10.5
		c-1.9,3.1-4.4,5.4-7.7,7.2c-3.3,1.8-7,2.6-11.1,2.6C106.1,283.5,102.5,282.7,99.2,280.9z M117.6,271.1c1.9-2,2.8-4.6,2.8-7.9
		s-0.9-6-2.8-7.9c-1.9-2-4.2-2.9-7.2-2.9c-2.9,0-5.3,0.9-7.2,2.9s-2.8,4.6-2.8,7.9s0.9,6,2.8,7.9c1.9,2,4.4,2.9,7.2,2.9
		C113.2,274.2,115.7,273.2,117.6,271.1z"/>
	<path class="st0" d="M147.5,282.4c-3.1-0.8-5.7-1.8-7.4-3.1l3.8-8.1c1.8,1.2,3.9,2,6.4,2.7c2.5,0.7,5,1.1,7.3,1.1
		c4.8,0,7.2-1.2,7.2-3.5c0-1.2-0.7-1.9-2-2.4c-1.3-0.5-3.3-0.9-6-1.3c-3.2-0.5-5.9-1.1-8-1.7c-2.1-0.6-3.9-1.8-5.4-3.4
		c-1.5-1.7-2.4-3.9-2.4-6.8c0-2.5,0.7-4.7,2.1-6.6c1.4-1.9,3.5-3.4,6.2-4.5c2.7-1.1,6-1.7,9.8-1.7c2.8,0,5.5,0.4,8.3,0.9
		c2.7,0.6,5.1,1.4,6.8,2.5l-3.8,8.1c-3.4-2-7.2-2.9-11.3-2.9c-2.5,0-4.2,0.4-5.5,1.1c-1.2,0.7-1.8,1.5-1.8,2.6c0,1.2,0.7,2.1,2,2.6
		s3.4,0.9,6.2,1.4c3.2,0.6,5.9,1.1,7.9,1.8c2,0.6,3.8,1.8,5.3,3.3c1.5,1.7,2.2,3.9,2.2,6.7c0,2.5-0.7,4.6-2.2,6.5
		c-1.4,1.9-3.5,3.4-6.4,4.5s-6.1,1.5-10,1.5C153.9,283.5,150.7,283.2,147.5,282.4z"/>
	<path class="st0" d="M220.3,245.6c2.9,1.7,5.3,4,7.1,7.1c1.7,3.1,2.6,6.6,2.6,10.6s-0.8,7.5-2.6,10.6c-1.7,3.1-4,5.4-7.1,7.1
		s-6.4,2.5-10,2.5c-5.1,0-11.2-4.7-11.2-4.7V297h-12v-54h11v5c2.7-3.4,6.8-5.1,12.2-5.1C214,243,217.3,243.9,220.3,245.6z
		 M215.5,271.1c1.9-2,2.8-4.6,2.8-7.9s-0.9-6-2.8-7.9c-1.9-2-4.2-2.9-7.2-2.9c-2.9,0-5.3,0.9-7.2,2.9c-1.9,2-2.8,4.6-2.8,7.9
		s0.9,6,2.8,7.9c1.9,2,4.2,2.9,7.2,2.9C211.3,274.2,213.7,273.2,215.5,271.1z"/>
	<path class="st0" d="M280.2,266h-29.7c0.6,2.5,1.8,4.4,3.8,5.8c2,1.4,4.5,2.1,7.4,2.1c2,0,3.9-0.4,5.4-0.9s3.1-1.5,4.5-2.8l6,6.6
		c-3.7,4.2-9.1,6.4-16.3,6.4c-4.5,0-8.4-0.8-11.8-2.6c-3.4-1.8-6-4.1-7.9-7.2c-1.9-3.1-2.8-6.6-2.8-10.5c0-3.9,0.9-7.3,2.7-10.4
		c1.9-3.1,4.4-5.5,7.5-7.2c3.2-1.8,6.7-2.6,10.7-2.6c3.9,0,7.3,0.8,10.5,2.5c3.1,1.7,5.5,4,7.3,7.1c1.8,3.1,2.7,6.7,2.7,10.7
		C280.4,263.2,280.4,264.1,280.2,266z M253.5,254c-1.8,1.4-2.8,3.4-3.2,6h19.3c-0.4-2.5-1.4-4.5-3.2-6c-1.8-1.5-3.9-2.2-6.5-2.2
		C257.4,251.9,255.3,252.6,253.5,254z"/>
	<path class="st0" d="M308.7,244.9c2.4-0.9,5.1-1.4,8.3-1.4v10.1c-1.3-0.1-2.1-0.1-2.6-0.1c-3.3,0-5.7,0.9-7.6,2.7
		c-1.9,1.9-2.8,4.6-2.8,8.2V283h-11v-39h10v5.2C304.5,247.3,306.4,245.9,308.7,244.9z"/>
	<path class="st0" d="M326.9,281.5c-1.4-1.4-2-3.1-2-5.1c0-2.1,0.7-3.8,2-5.1c1.3-1.3,3.1-1.9,5.1-1.9s3.7,0.6,5.1,1.9
		c1.4,1.3,2,2.9,2,5.1c0,2-0.7,3.8-2,5.1c-1.4,1.4-3.1,2-5.1,2C329.9,283.5,328.3,282.8,326.9,281.5z"/>
</g>
</svg>
