<?xml version="1.0" encoding="utf-8"?>
<!-- Generator: Adobe Illustrator 22.0.1, SVG Export Plug-In . SVG Version: 6.00 Build 0)  -->
<svg version="1.1" id="Calque_1" xmlns="http://www.w3.org/2000/svg" xmlns:xlink="http://www.w3.org/1999/xlink" x="0px" y="0px"
	 viewBox="0 0 20 14" style="enable-background:new 0 0 20 14;" xml:space="preserve">
<style type="text/css">
	.st0{fill:#FFFFFF;}
</style>
<g>
	<path className="st0" d="M18.1,0.2C18,0.1,18,0.1,18,0H1.7c0,0,0,0,0,0l7.6,6.2c0.4,0.3,0.9,0.3,1.3,0L18.1,0.2z"/>
	<path className="st0" d="M11.3,8.2c-0.7,0.6-1.8,0.6-2.5,0L0.1,1.3C0,1.5,0,1.8,0,2v10c0,1.1,0.9,2,2,2h16c1.1,0,2-0.9,2-2V2
		c0-0.2,0-0.5-0.1-0.7L11.3,8.2z"/>
</g>
</svg>
