<?xml version="1.0" encoding="utf-8"?>
<!-- Generator: Adobe Illustrator 25.1.0, SVG Export Plug-In . SVG Version: 6.00 Build 0)  -->
<svg version="1.1" id="Calque_1" xmlns="http://www.w3.org/2000/svg" xmlns:xlink="http://www.w3.org/1999/xlink" x="0px" y="0px"
	 width="59.5px" height="14.2px" viewBox="0 0 59.5 14.2" style="enable-background:new 0 0 59.5 14.2;" xml:space="preserve">
<style type="text/css">
	.st0{fill:#439fc6;}
</style>
<g id="Groupe_1737" transform="translate(-1098 -1383)">
	<path id="Tracé_4599" className="st0" d="M1106,1383.4l1.5,4.6l4.8,0c0.3,0,0.6,0.3,0.6,0.6c0,0,0,0,0,0c0,0.2-0.1,0.4-0.3,0.5
		l-3.9,2.8l1.5,4.6c0.1,0.3-0.1,0.6-0.4,0.7c-0.2,0.1-0.4,0-0.5-0.1l-3.9-2.8l-3.9,2.9c-0.3,0.2-0.6,0.1-0.8-0.1
		c-0.1-0.1-0.1-0.3-0.1-0.5l0,0l1.5-4.6l-3.9-2.8c-0.3-0.2-0.3-0.5-0.1-0.8c0.1-0.1,0.3-0.2,0.5-0.2l4.8,0l1.5-4.6
		c0.1-0.3,0.4-0.5,0.7-0.4C1105.8,1383.1,1105.9,1383.2,1106,1383.4L1106,1383.4z"/>
	<path id="Tracé_4600" className="st0" d="M1120.9,1383.4l1.5,4.6l4.8,0c0.3,0,0.6,0.3,0.6,0.6c0,0,0,0,0,0c0,0.2-0.1,0.4-0.3,0.5
		l-3.9,2.8l1.5,4.6c0.1,0.3-0.1,0.6-0.4,0.7c-0.2,0.1-0.4,0-0.5-0.1l-3.9-2.8l-3.9,2.9c-0.3,0.2-0.6,0.1-0.8-0.1
		c-0.1-0.1-0.1-0.3-0.1-0.5l0,0l1.5-4.6l-3.9-2.8c-0.3-0.2-0.3-0.5-0.1-0.8c0.1-0.1,0.3-0.2,0.5-0.2l4.8,0l1.5-4.6
		c0.1-0.3,0.4-0.5,0.7-0.4C1120.7,1383.1,1120.8,1383.2,1120.9,1383.4L1120.9,1383.4z"/>
	<path id="Tracé_4601" className="st0" d="M1135.7,1383.4l1.5,4.6l4.8,0c0.3,0,0.6,0.3,0.6,0.6c0,0,0,0,0,0c0,0.2-0.1,0.4-0.3,0.5
		l-3.9,2.8l1.5,4.6c0.1,0.3-0.1,0.6-0.4,0.7c-0.2,0.1-0.4,0-0.5-0.1l-3.9-2.8l-3.9,2.9c-0.3,0.2-0.6,0.1-0.8-0.1
		c-0.1-0.1-0.1-0.3-0.1-0.5l0,0l1.5-4.6l-3.9-2.8c-0.3-0.2-0.3-0.5-0.1-0.8c0.1-0.1,0.3-0.2,0.5-0.2l4.8,0l1.5-4.6
		c0.1-0.3,0.4-0.5,0.7-0.4C1135.5,1383.1,1135.6,1383.2,1135.7,1383.4L1135.7,1383.4z"/>
	<path id="Tracé_4602" className="st0" d="M1150.6,1383.4l1.5,4.6l4.8,0c0.3,0,0.6,0.3,0.6,0.6c0,0,0,0,0,0c0,0.2-0.1,0.4-0.3,0.5
		l-3.9,2.8l1.5,4.6c0.1,0.3-0.1,0.6-0.4,0.7c-0.2,0.1-0.4,0-0.5-0.1l-3.9-2.8l-3.9,2.9c-0.3,0.2-0.6,0.1-0.8-0.1
		c-0.1-0.1-0.1-0.3-0.1-0.5l0,0l1.5-4.6l-3.9-2.8c-0.3-0.2-0.3-0.5-0.1-0.8c0.1-0.1,0.3-0.2,0.5-0.2l4.8,0l1.5-4.6
		c0.1-0.3,0.4-0.5,0.7-0.4C1150.4,1383.1,1150.5,1383.2,1150.6,1383.4L1150.6,1383.4z"/>
</g>
</svg>
