<svg xmlns="http://www.w3.org/2000/svg" width="20" height="16" viewBox="0 0 20 16">
  <defs>
    <style>
      .cls-1 {
        fill: #212958;
        fill-rule: evenodd;
      }
    </style>
  </defs>
  <path id="Icon_Twitter" className="cls-1" d="M2694.27,1242a11.508,11.508,0,0,0,11.69-11.49c0-.18,0-0.36-0.01-0.52a8.187,8.187,0,0,0,2.05-2.1,8.309,8.309,0,0,1-2.36.64,4.065,4.065,0,0,0,1.81-2.24,8.379,8.379,0,0,1-2.61.98,4.141,4.141,0,0,0-3-1.27,4.074,4.074,0,0,0-4.1,4.04,3.463,3.463,0,0,0,.11.92,11.729,11.729,0,0,1-8.46-4.22,3.979,3.979,0,0,0-.56,2.02,4.02,4.02,0,0,0,1.83,3.36,3.99,3.99,0,0,1-1.85-.5v0.05a4.05,4.05,0,0,0,3.29,3.96,3.809,3.809,0,0,1-1.08.15,3.945,3.945,0,0,1-.77-0.08,4.1,4.1,0,0,0,3.83,2.81,8.359,8.359,0,0,1-5.1,1.72,6.37,6.37,0,0,1-.98-0.06,11.55,11.55,0,0,0,6.27,1.83" transform="translate(-2688 -1226)"/>
</svg>
