<svg xmlns="http://www.w3.org/2000/svg" width="18" height="18" viewBox="0 0 18 18">
  <defs>
    <style>
      .cls-1 {
        fill: #212958;
        fill-rule: evenodd;
      }
    </style>
  </defs>
  <path id="Icon_LinkedIn" className="cls-1" d="M2694.03,1381h-3.73v-12.02h3.73V1381Zm-1.86-13.66a2.165,2.165,0,1,1,2.16-2.17A2.168,2.168,0,0,1,2692.17,1367.34Zm15.82,13.66h-3.72v-5.85c0-1.39-.03-3.18-1.94-3.18-1.94,0-2.24,1.52-2.24,3.08V1381h-3.72v-12.02h3.57v1.64h0.05a3.937,3.937,0,0,1,3.53-1.94c3.77,0,4.47,2.49,4.47,5.73V1381Z" transform="translate(-2690 -1363)"/>
</svg>
