<?xml version="1.0" encoding="utf-8"?>
<!-- Generator: Adobe Illustrator 24.1.2, SVG Export Plug-In . SVG Version: 6.00 Build 0)  -->
<svg version="1.1" id="Calque_1" xmlns="http://www.w3.org/2000/svg" xmlns:xlink="http://www.w3.org/1999/xlink" x="0px" y="0px"
	 width="267px" height="267px" viewBox="0 0 267 267" enable-background="new 0 0 267 267" xml:space="preserve">
<g>
	<path d="M225.8,134.6c-3.1-3.1-8-3.1-11,0l-46,46v-40.3v-0.2c0-2-0.7-4-2.3-5.5c-3.1-3.1-8-3.1-11.1,0l-46,46v-73.1
		v-0.2c0-4.3-3.5-7.8-7.8-7.8H46.4h-0.2c-4.3,0-7.8,3.5-7.8,7.8v151.3v0.2c0,4.3,3.5,7.8,7.8,7.8h173.9h0.2c4.3,0,7.8-3.5,7.8-7.8
		V140.3v-0.2C228.1,138.1,227.4,136.1,225.8,134.6z M212.5,250.8H54V115h39.9v84.4c0,4.3,3.5,7.8,7.8,7.8c2.2,0,4.1-0.9,5.5-2.3
		l45.9-46v40.4c0,4.3,3.5,7.8,7.8,7.8c2.2,0,4.1-0.9,5.5-2.3l45.9-46v92H212.5z"/>
	<path fill="#FFFFFF" d="M78.4,66.6c0.6,3.3,1.6,6.4,2.9,9.3c1,2.4,3.8,3.5,6.1,2.5c2.4-1,3.5-3.7,2.5-6.1s-1.8-4.9-2.3-7.5
		c-0.5-2.4-0.7-5.1-0.7-7.9c0-2.8,0.2-5.4,0.7-7.9c0.5-2.6,1.3-5.1,2.3-7.5s-0.1-5.1-2.5-6.1s-5.1,0.1-6.1,2.5
		c-1.2,3-2.2,6.1-2.9,9.3l0,0c-0.7,3.2-1,6.5-1,9.7C77.4,60.1,77.8,63.4,78.4,66.6z"/>
	<path fill="#FFFFFF" d="M65.5,75.9c1,2.4,3.8,3.5,6.1,2.5c2.3-1,3.5-3.7,2.5-6.1s-1.8-4.9-2.3-7.5c-0.5-2.4-0.8-5.1-0.8-7.9
		c0-2.8,0.3-5.4,0.8-7.9l0,0c0.5-2.6,1.3-5.1,2.3-7.5c1.2-3,2.2-6.1,2.9-9.3c0.6-3.2,1-6.4,1-9.7c0-3.2-0.3-6.5-1-9.7
		s-1.6-6.3-2.9-9.3C73.1,1.1,70.4,0,68,1s-3.5,3.7-2.5,6.1s1.8,4.9,2.3,7.5c0.5,2.5,0.8,5.1,0.8,7.9s-0.3,5.4-0.8,7.9
		c-0.5,2.6-1.3,5.2-2.3,7.6c-1.2,3-2.2,6.1-2.9,9.3l0,0l0,0c-0.6,3.2-1,6.5-1,9.7s0.3,6.5,1,9.7C63.3,69.8,64.3,73,65.5,75.9z"/>
</g>
</svg>
