<?xml version="1.0" encoding="utf-8"?>
<!-- Generator: Adobe Illustrator 24.1.2, SVG Export Plug-In . SVG Version: 6.00 Build 0)  -->
<svg version="1.1" id="Calque_1" xmlns="http://www.w3.org/2000/svg" xmlns:xlink="http://www.w3.org/1999/xlink" x="0px" y="0px"
	 width="267px" height="267px" viewBox="0 0 267 267" enable-background="new 0 0 267 267" xml:space="preserve">
<path d="M227,87.2v17.1h17.1L227,87.2L227,87.2z M252,116.8L252,116.8v67.6c0,3.5-2.8,6.3-6.3,6.3s-6.3-2.8-6.3-6.3
	v-67.6H155h-0.1h-0.2h-2.2v19.5c0,5.8-4.7,10.5-10.5,10.5h-0.3h-19.2c0,20.8,0,41.7,0,62.5v0.2v0.1v36.6h44.4
	c5.8,0,10.4,4.7,10.4,10.5c0,5.8-4.7,10.4-10.4,10.4H27.1c-5.8,0-10.5-4.7-10.5-10.4c0-5.8,4.7-10.5,10.5-10.5h44.4v-36.6v-0.1v-0.2
	c0-30.8,0-61.6,0-92.4c-18.2,0-36.4,0-54.6,0c-3.4,0-6.2-2.8-6.2-6.3v-0.1V72c0-1.8,0.8-3.5,2.1-4.7l60-64.9l0.1-0.1
	c1-1.4,2.8-2.3,4.8-2.3c1.1,0,2.2,0.3,3,0.8l142.1,65.4h0.1h0.1h0.1h0.1l0,0l0,0h0.1l0.1,0.1l0.1,0.1l0.1,0.1l0.1,0.1l0.1,0.1
	l0.1,0.1h0.1h0.1l0,0l0,0l0.1,0.1l0,0h0.1V67h0.1l0.1,0.1l0,0l0.1,0.1l0,0v0.1l0.1,0.1l0.1,0.1l0.1,0.1l0.1,0.1l38.4,38.4
	c2.4,2.4,2.4,6.4,0,8.9c-1.2,1.2-2.8,1.8-4.4,1.8L252,116.8L252,116.8z M128.8,78.3L128.8,78.3L148.5,98V78.3H128.8L128.8,78.3z
	 M110,146.8L110,146.8H84v17.9h26V146.8L110,146.8z M107.6,86.7L107.6,86.7H92.4v19.6v19.6H112h19.6v-15.3L107.6,86.7L107.6,86.7z
	 M84,246.1L84,246.1h26v-30.5H84V246.1L84,246.1z M84,65.8L84,65.8h21.3L84,29.3V65.8L84,65.8z M192.1,65.8L192.1,65.8L93.2,20.3
	l26.7,45.5C143.9,65.8,168,65.8,192.1,65.8L192.1,65.8z M71.5,22.2L71.5,22.2L31.2,65.8c13.4,0,26.9,0,40.3,0V22.2L71.5,22.2z
	 M187,104.3L187,104.3v-26h-26v26H187L187,104.3z M199.6,78.3L199.6,78.3v26h14.8v-26H199.6L199.6,78.3z M71.5,78.3L71.5,78.3H53.7
	v26h17.8V78.3L71.5,78.3z M41.1,78.3L41.1,78.3h-18v26h18V78.3L41.1,78.3z M84,203.1L84,203.1h26v-26H84V203.1L84,203.1z"/>
</svg>
