<svg xmlns="http://www.w3.org/2000/svg" width="10.503" height="12.425" viewBox="0 0 10.503 12.425">
  <path id="timer" d="M9.292,3.819l.487-.487a.485.485,0,0,0-.685-.685l-.487.487a5.2,5.2,0,0,0-2.87-1.189V.969H6.2A.485.485,0,0,0,6.2,0H4.3a.485.485,0,0,0,0,.969h.469v.976A5.251,5.251,0,1,0,9.292,3.819Zm-4.04,7.637A4.282,4.282,0,1,1,9.533,7.174,4.287,4.287,0,0,1,5.251,11.456ZM7.5,4.928a.485.485,0,0,1,0,.685l-1.9,1.9a.485.485,0,0,1-.685-.685l1.9-1.9A.485.485,0,0,1,7.5,4.928Zm0,0" fill="#333"/>
</svg>
