<?xml version="1.0" encoding="utf-8"?>
<!-- Generator: Adobe Illustrator 22.0.1, SVG Export Plug-In . SVG Version: 6.00 Build 0)  -->
<svg version="1.1" id="Calque_1" xmlns="http://www.w3.org/2000/svg" xmlns:xlink="http://www.w3.org/1999/xlink" x="0px" y="0px"
	 viewBox="0 0 267 267" style="enable-background:new 0 0 267 267;" xml:space="preserve">
<style type="text/css">
	.st0{fill:#000000;}
</style>
<g>
	<path className="st0" d="M1,44C6,17,29,2,29,2s9-6,20,3c12,9,44,38,44,38s11,10,6,21c-6,11-25,31-25,31c-7,24,75,105,98,98
		c0,0,20-19,31-24s21,5,21,5s29,33,38,44c9,11,3,21,3,21s-14,22-42,27C136,281-14,131,1,44z"/>
</g>
</svg>
