<?xml version="1.0" encoding="utf-8"?>
<!-- Generator: Adobe Illustrator 22.0.1, SVG Export Plug-In . SVG Version: 6.00 Build 0)  -->
<svg version="1.1" id="_x2014_ÎÓÈ_x5F_1" xmlns="http://www.w3.org/2000/svg" xmlns:xlink="http://www.w3.org/1999/xlink"
	 x="0px" y="0px" viewBox="0 0 400 710.4" style="enable-background:new 0 0 400 710.4;" xml:space="preserve">
<style type="text/css">
	.st0{fill:#E9EDFC;}
	.st1{fill:#264DE4;}
</style>
<g>
	<path className="st0" d="M287.5,330.5v-58.3c0-14.5-11.8-26.3-26.3-26.3h-5H140.8h-2c-14.5,0-26.3,11.8-26.3,26.3v58.3
		C45.9,363,0,431.3,0,510.4c0,110.5,89.5,200,200,200s200-89.5,200-200C400,431.3,354.1,363,287.5,330.5z M137.5,272.3
		c0-0.7,0.6-1.3,1.3-1.3h122.4c0.7,0,1.3,0.6,1.3,1.3v48.1c-19.7-6.5-40.7-10-62.5-10s-42.8,3.5-62.5,10V272.3z M200,672.9
		c-89.7,0-162.5-72.8-162.5-162.5S110.3,347.9,200,347.9s162.5,72.8,162.5,162.5C362.5,600.2,289.7,672.9,200,672.9z"/>
	<circle className="st0" cx="200" cy="510.4" r="125"/>
	<polygon className="st0" points="399.4,0 284,0 214.1,121 271.9,221 	"/>
	<polygon className="st0" points="140.1,221 167.8,221 243,221 115.5,0 0,0 127.6,221 	"/>
</g>
<g>
	<path className="st1" d="M197.8,549.9c-16.3,0-29.5-10.7-30-27.2h15.9c0.6,8.6,6.5,13.2,14.2,13.2c7.9,0,14-4.8,14-13.2
		c0-9.2-7.2-13.4-15.5-13.4h-6.6v-13.9h6.6c8.6,0,13.6-3.6,13.6-11.8c0-6.4-5.1-11.6-12.1-11.6c-7.9,0-13.5,3.9-13.6,12h-16
		c0.3-16.7,13.5-25.9,29.6-25.9c16,0,28.2,9.9,28.2,25.2c0,8-4.7,16.2-12.7,19c9.2,2.5,14.5,11.6,14.5,20.7
		C227.9,540.6,214.4,549.9,197.8,549.9z"/>
</g>
</svg>
