<svg xmlns="http://www.w3.org/2000/svg" width="45" height="22" viewBox="0 0 45 22">
  <path id="Tracé_25" data-name="Tracé 25" d="M44,10.2A6.1,6.1,0,0,0,44.9,8a1.3,1.3,0,0,0-1.4.5c-.2.2-.4.7-.7,1.1A23.8,23.8,0,0,0,43.3,7a1.5,1.5,0,0,0,1.2-.9A4.8,4.8,0,0,0,45,3.9s-.6-.1-1.1.8a7.3,7.3,0,0,0-.5,1.2c.2-.9.3-1.9.4-2.7a1.7,1.7,0,0,0-.3,1l-.3,2.4A4.1,4.1,0,0,0,43,5a2.8,2.8,0,0,0-1.6-1.8A6.4,6.4,0,0,0,41.7,6c.5,1,1,1.4,1.3,1.5a12.9,12.9,0,0,1-.8,2.8,4.8,4.8,0,0,0,0-1.7,3.5,3.5,0,0,0-1.4-2.1,5.9,5.9,0,0,0-.1,2.9,4.6,4.6,0,0,0,1.1,1.8,11.5,11.5,0,0,1-1.2,2.5,5,5,0,0,0,.3-1.6,4,4,0,0,0-1.1-2.5,6,6,0,0,0-.6,3,4.1,4.1,0,0,0,.9,2.1,18.4,18.4,0,0,1-1.7,2.2,4.4,4.4,0,0,0,.5-1.5,4.8,4.8,0,0,0-.8-2.8A5.9,5.9,0,0,0,37,15.5a4.1,4.1,0,0,0,.5,2.2l-2,1.7a4.6,4.6,0,0,0,.8-1.3,4.2,4.2,0,0,0-.3-2.9,6.5,6.5,0,0,0-1.7,2.6,5.2,5.2,0,0,0,.1,2.3L32,21.4a3.8,3.8,0,0,0,1.1-1.1,3.3,3.3,0,0,0,.2-2.9,6.1,6.1,0,0,0-2.2,2.2,3.9,3.9,0,0,0-.3,2.2l-2.4.7a4.1,4.1,0,0,0,1.3-.8,3.6,3.6,0,0,0,.8-2.7,6.2,6.2,0,0,0-2.6,1.8,3.6,3.6,0,0,0-.7,2l-3.1.6-1.7.4-1.7-.4-3.1-.6a3.8,3.8,0,0,0-.7-2A6.2,6.2,0,0,0,14.3,19a3.6,3.6,0,0,0,.8,2.7,4.1,4.1,0,0,0,1.3.8L14,21.8a3.9,3.9,0,0,0-.3-2.2,5.3,5.3,0,0,0-2.2-2.2,4.2,4.2,0,0,0,.2,2.9,3.8,3.8,0,0,0,1.1,1.1,14.1,14.1,0,0,1-2.4-1.3,5,5,0,0,0,.1-2.3c0-1.3-1.5-2.6-1.5-2.6a4,4,0,0,0-.3,2.9,4.6,4.6,0,0,0,.8,1.3l-2-1.7A4.9,4.9,0,0,0,8,15.4a5.9,5.9,0,0,0-1.1-2.9,4.2,4.2,0,0,0-.8,2.8l.5,1.5A17.7,17.7,0,0,1,5,14.6a4.6,4.6,0,0,0,.9-2.1,6.4,6.4,0,0,0-.6-3A4,4,0,0,0,4.2,12a4.5,4.5,0,0,0,.3,1.6,19.6,19.6,0,0,1-1.3-2.5A3.6,3.6,0,0,0,4.3,9.3a5.9,5.9,0,0,0-.1-2.9A3.5,3.5,0,0,0,2.8,8.5a9.7,9.7,0,0,0,0,1.7L2.2,7.4A3.3,3.3,0,0,0,3.5,5.9a5.8,5.8,0,0,0,.2-2.8A3.5,3.5,0,0,0,2.1,4.9C2.1,5.3,2,6,2,6.5L1.7,4.1a1.6,1.6,0,0,0-.3-.9,24.5,24.5,0,0,0,.2,2.7,3.3,3.3,0,0,0-.5-1.2C.6,3.8,0,3.9,0,3.9A6.8,6.8,0,0,0,.5,6.1,1.8,1.8,0,0,0,1.8,7a11,11,0,0,0,.6,2.6L1.7,8.5C.9,7.7.3,8,.3,8a4.6,4.6,0,0,0,.9,2.2,1.9,1.9,0,0,0,1.5.6c.3.9.7,1.7,1.1,2.6a4.7,4.7,0,0,0-1-1A1.9,1.9,0,0,0,1,12.2a4.2,4.2,0,0,0,1.4,2,2.7,2.7,0,0,0,1.9.2,18.8,18.8,0,0,0,1.6,2.3,4.6,4.6,0,0,0-1.3-.8,2.4,2.4,0,0,0-2.1.3,3.9,3.9,0,0,0,2,1.6,3.9,3.9,0,0,0,2.1-.2,19,19,0,0,0,2.1,1.9L7.3,19a3,3,0,0,0-2.2.8,4.2,4.2,0,0,0,2.5,1,3,3,0,0,0,2.1-.7l2.2,1.3-1.4-.2a2.8,2.8,0,0,0-2,1.2,5.3,5.3,0,0,0,2.8.4,4.7,4.7,0,0,0,1.9-.9l2.4.8H14.3A2.4,2.4,0,0,0,12.6,24a8,8,0,0,0,2.8,0,3,3,0,0,0,1.7-1l4.5.9a14.6,14.6,0,0,0-2.8,1l.8.2a18.7,18.7,0,0,1,3-1,18.7,18.7,0,0,1,3,1l.8-.2a14.6,14.6,0,0,0-2.8-1l4.5-.9a3,3,0,0,0,1.7,1.1,6.2,6.2,0,0,0,2.8,0,2.4,2.4,0,0,0-1.7-1.3H29.6A11.3,11.3,0,0,0,32,22a3.7,3.7,0,0,0,1.9.9,5.3,5.3,0,0,0,2.8-.4,2.8,2.8,0,0,0-2-1.2l-1.4.2,2.2-1.3a4.5,4.5,0,0,0,2.1.7,4.2,4.2,0,0,0,2.5-1,2.6,2.6,0,0,0-2.2-.8,3.9,3.9,0,0,0-1.4.5l2.1-1.9a3.1,3.1,0,0,0,2.1.2,3.5,3.5,0,0,0,2-1.6,2.4,2.4,0,0,0-2.1-.3,4.2,4.2,0,0,0-1.2.8A18.8,18.8,0,0,0,41,14.4a2.7,2.7,0,0,0,1.9-.2,3.5,3.5,0,0,0,1.4-2,1.7,1.7,0,0,0-1.8.2,4.5,4.5,0,0,0-.9,1,27.2,27.2,0,0,0,1.1-2.5c0-.1.6-.2,1.3-.7" transform="translate(0 -3.1)" fill="#fff"/>
</svg>
